<?xml version="1.0" encoding="UTF-8" standalone="no"?>
<!-- Created with Inkscape (http://www.inkscape.org/) -->

<svg
   version="1.1"
   id="svg1"
   width="1024"
   height="1024"
   viewBox="0 0 1024 1024"
   xmlns="http://www.w3.org/2000/svg"
   xmlns:svg="http://www.w3.org/2000/svg">
  <defs
     id="defs1" />
  <g
     id="g1">
    <path
       style="fill:#000000"
       d="m 261.3308,829.5 c 15.56699,-28.37886 45.87986,-75.04198 69.31198,-106.69769 18.41469,-24.87739 38.24211,-50.941 40.72269,-53.53093 l 2.13453,-2.22862 -0.25195,17.07699 c -0.28818,19.53241 0.86739,16.48452 -12.65566,33.38025 -44.85367,56.04028 -70.07542,85.48857 -96.35354,112.5 l -7.29639,7.5 z m 229.83936,-24.60083 c -23.93092,-1.7219 -53.76512,-8.3155 -76.9666,-17.01026 -17.24415,-6.46225 -30.09291,-12.37493 -31.81147,-14.63885 -0.73066,-0.96253 -1.34279,-3.70756 -1.36029,-6.10006 -0.0266,-3.63578 0.52644,-4.90824 3.3682,-7.75 4.52458,-4.52458 7.4996,-4.41264 19.47852,0.73291 33.75697,14.50034 65.57456,21.70474 99.77571,22.59204 40.97021,1.06292 72.72028,-5.13137 111.87388,-21.82609 15.73205,-6.70798 16.95343,-7.06857 20.35411,-6.009 4.51792,1.40766 7.35067,5.21456 7.47743,10.04883 0.18628,7.10452 -3.15026,9.56676 -25.86528,19.08762 -29.47885,12.35588 -56.69858,18.61703 -90.99437,20.93078 -16.61514,1.12093 -19.00047,1.11702 -35.32984,-0.0579 z m 183.93991,-61.29468 c -3.23748,-1.79439 -5.03205,-5.32294 -5.07463,-9.9779 -0.034,-3.71589 0.74755,-4.65124 19.21827,-23 26.08153,-25.90933 42.87561,-48.11805 55.82821,-73.82799 14.56206,-28.9046 25.72832,-65.71142 28.45612,-93.7986 0.86216,-8.87734 2.1495,-12.60906 5.16921,-14.98436 5.72374,-4.50229 16.23999,-1.0853 17.74473,5.7657 1.20889,5.50408 -3.29659,34.00195 -8.53575,53.98988 C 776.66138,630.70964 758.2723,666.14905 729.42263,700.5 718.3898,713.63666 713.84779,718.40265 700,731.3736 c -13.98042,13.09518 -18.93653,15.53061 -24.88993,12.23089 z M 296.81707,708.75 C 271.40885,680.5701 250.72441,644.91501 237.78928,607 c -7.26019,-21.28084 -13.88536,-53.02471 -14.15556,-67.82503 -0.13021,-7.13301 -0.0448,-7.40468 3.25909,-10.36351 3.03186,-2.71522 3.91303,-2.98849 8.28264,-2.56862 5.78431,0.5558 9.57374,3.57599 10.24723,8.16709 0.24931,1.69954 0.96194,7.14007 1.58362,12.09007 6.6896,53.26436 29.36544,104.3953 64.61107,145.68921 C 316.77782,698.23521 321,703.55055 321,704.00107 321,704.87032 306.66465,718 305.71559,718 c -0.30708,0 -4.31141,-4.1625 -8.89852,-9.25 z m 111.59812,2.88707 c -1.69665,-0.77089 -4.05915,-2.64028 -5.25,-4.1542 C 401.17565,704.95359 401,703.57746 401,690.52013 c 0,-12.28674 0.23687,-14.41626 1.75,-15.73284 1.29804,-1.12943 5.36566,-1.68903 15.75,-2.16679 15.0538,-0.69259 33.54418,-3.23897 48,-6.61027 14.0545,-3.2777 33.45258,-9.01546 39.5,-11.68369 11.89738,-5.24934 17.52084,-14.64116 19.27112,-32.18494 0.58392,-5.85288 1.1427,-10.76001 1.24174,-10.90473 0.099,-0.14472 1.8097,0.41778 3.80148,1.25 1.99178,0.83222 5.2288,1.51313 7.19338,1.51313 3.58165,0 10.46615,-2.89136 13.74228,-5.7715 1.64765,-1.44849 1.74984,-1.10538 1.74718,5.86651 -0.009,24.03271 -8.04371,53.0798 -16.42688,59.3875 -3.13092,2.35578 -46.81851,18.50207 -85.5703,31.62551 -19.33759,6.54875 -22.4052,7.31373 -30.5,7.60586 -6.2004,0.22376 -9.95958,-0.1112 -12.08481,-1.07681 z m -49.98408,-89.05554 c -0.99828,-3.97746 1.48795,-33.18746 3.94368,-46.33312 1.25879,-6.73837 2.10165,-12.43864 1.87303,-12.66726 -0.22862,-0.22862 -2.92336,0.44709 -5.9883,1.50159 -6.95021,2.39122 -11.62098,2.39881 -16.75952,0.0272 -8.31197,-3.83623 -12.03405,-11.74058 -10.42437,-22.13764 0.84771,-5.47543 7.88633,-24.92231 9.03223,-24.95499 0.33433,-0.01 2.27707,2.687 4.31722,5.99229 2.04014,3.30529 5.35856,7.13029 7.37427,8.5 6.70836,4.55845 15.44949,2.52675 22.19812,-5.15952 l 3.30811,-3.76773 -0.66449,5.95881 c -3.29059,29.50807 -2.37859,36.97924 4.91999,40.30469 5.55369,2.53043 10.41178,0.62101 13.80335,-5.42527 1.20956,-2.15633 2.75321,-3.9206 3.43034,-3.9206 0.67712,0 2.92819,2.25 5.00237,5 3.29415,4.36748 4.27978,5.03769 7.79125,5.29793 7.78225,0.57676 12.7032,-5.97466 12.56504,-16.72823 -0.26985,-21.00374 -16.31909,-48.83428 -35.40409,-61.39324 l -5.75066,-3.78425 3.85613,-5.6961 c 8.163,-12.05803 8.54991,-15.01269 3.09276,-23.61773 -3.59747,-5.67262 -8.7227,-9.06021 -16.84818,-11.13603 -12.13597,-3.10037 -24.45151,0.78325 -31.09632,9.80602 l -3.49693,4.74836 -1.65238,-2.19061 c -7.22044,-9.57235 -2.26745,-24.06475 10.54799,-30.86332 3.44719,-1.82873 4.68569,-3.1365 5.13874,-5.42612 1.74442,-8.81595 7.28429,-24.2461 12.03345,-33.51668 38.8763,-75.8882 147.49359,-103.80893 219.92606,-56.53331 14.78179,9.64786 31.03655,26.85207 40.81944,43.20375 0.52394,0.87575 -1.65518,1.02992 -8.65473,0.61232 -20.69323,-1.23458 -43.57268,5.36215 -59.16471,17.05869 -18.32266,13.74495 -29.5,32.45171 -29.5,49.37217 0,7.49364 1.45735,11.37057 7.40993,19.71237 14.56431,20.41004 17.72703,33.61948 12.2095,50.99428 l -2.38057,7.49645 7.63057,1.67476 c 14.43205,3.16754 32.6316,10.63743 43.13057,17.70266 5.57697,3.753 15,11.62637 15,12.53318 0,0.36998 -6.1875,0.69868 -13.75,0.73046 -16.51302,0.0694 -26.98916,1.93514 -42.58002,7.58325 -6.14349,2.22561 -14.99498,5.43643 -19.66998,7.13515 -16.12901,5.8607 -30.04594,4.9802 -60.80042,-3.84671 -8.53085,-2.44846 -15.62825,-4.33413 -15.772,-4.19039 -0.14374,0.14375 1.90667,3.49103 4.55647,7.4384 8.57356,12.77191 12.32607,27.07216 11.80327,44.98043 L 474.5,624.5 h -6.5 -6.5 l -0.5,-8.83368 c -0.40933,-7.23181 -0.852,-9.09051 -2.44113,-10.25 -2.47583,-1.80645 -3.59217,-1.78172 -6.33636,0.14038 C 450.26808,606.92564 450,608.00136 450,614.47492 450,625.01314 450.01012,625 441.89301,625 H 435 v -8.5 c 0,-7.16667 -0.31373,-8.81373 -2,-10.5 -2.47518,-2.47518 -5.18611,-2.55682 -7.30102,-0.21987 -1.15311,1.27417 -1.69455,4.18747 -1.90499,10.25 L 423.5,624.5 l -7.75,0.29206 -7.75,0.29207 v -8.54207 c 0,-7.20873 -0.31218,-8.85424 -2,-10.54206 -2.36591,-2.36591 -3.92597,-2.50474 -6.55887,-0.58368 -1.58913,1.15949 -2.0318,3.01819 -2.44113,10.25 l -0.5,8.83368 -6.66096,0.29366 c -6.58481,0.2903 -6.66718,0.26173 -7.20605,-2.5 -0.29981,-1.53651 -0.35402,-4.14366 -0.12048,-5.79366 0.69493,-4.90977 -0.57505,-9.49487 -3.0855,-11.13978 C 374.0888,601.86249 371,606.55011 371,618.14922 V 625 h -5.98095 c -5.49192,0 -6.03058,-0.19774 -6.58794,-2.41847 z m 131.03393,-88.11444 c 8.5767,-2.23395 14.97348,-6.09331 21.14103,-12.755 9.61789,-10.38847 13.90812,-22.18335 13.18668,-36.25343 -0.74065,-14.44482 -7.59548,-23.8354 -22.85234,-31.30593 -11.13093,-5.45027 -18.21544,-7.24489 -31.1004,-7.87823 -9.10009,-0.44731 -11.71723,-0.20285 -17.885,1.67055 -5.98013,1.81641 -8.11906,3.08856 -12.41373,7.38323 -6.12887,6.12887 -8.44425,11.82543 -9.215,22.67172 -1.08392,15.25353 5.34761,31.53333 17.2732,43.72275 7.2887,7.44995 11.71283,10.06127 21.50945,12.69583 7.09713,1.9086 13.15927,1.92305 20.35611,0.0485 z M 228.31382,496.04977 c -4.83023,-2.9452 -5.66412,-5.30667 -4.93501,-13.97532 2.08818,-24.82707 11.16957,-59.11053 22.40304,-84.57445 15.85922,-35.94952 45.09451,-75.06376 75.71815,-101.30423 21.50835,-18.42984 51.96142,-36.52662 82,-48.72859 15.3731,-6.24471 20.95385,-7.17539 24.38898,-4.06727 4.27878,3.87146 4.55575,12.24121 0.5515,16.66586 -0.89105,0.9846 -6.41718,3.67624 -12.28029,5.98141 -41.49691,16.31518 -73.84098,38.13588 -101.67531,68.59452 -28.76648,31.4787 -48.27724,66.07864 -59.93078,106.2799 -3.49943,12.07198 -8.5541,38.17338 -8.5541,44.17181 0,10.12138 -9.45227,15.97694 -17.68618,10.95636 z m 553.01166,0.4911 C 776.67494,494.51798 775.23407,491.5441 774.03808,481.5 769.66548,444.77823 757.47214,407.99374 739.61375,377.64975 736.52619,372.40353 734,367.89471 734,367.63014 734,366.92045 749.98387,355 750.93547,355 c 0.44681,0 3.05732,3.4875 5.80113,7.75 18.72955,29.09629 32.33674,66.65214 38.19677,105.42316 3.27851,21.69116 2.6846,25.41721 -4.53194,28.43247 -4.07016,1.70062 -5.03319,1.69375 -9.07595,-0.0648 z M 653.76062,364.3861 c -6.03812,-5.89382 -6.60354,-6.77228 -5.43385,-8.44224 4.18826,-5.97958 28.33956,-34.87115 29.17745,-34.90422 1.70635,-0.0674 13.60195,10.19049 13.28998,11.46025 -0.33517,1.36416 -29.02836,38.37214 -29.7942,38.42805 -0.275,0.0201 -3.53272,-2.92375 -7.23938,-6.54184 z m 90.54304,-44.23634 c -3.95798,-5.88858 -7.47697,-11.43783 -7.81997,-12.33167 -0.343,-0.89384 0.30797,-4.64138 1.44661,-8.32785 1.43085,-4.63256 2.00106,-8.90904 1.84622,-13.84646 -0.20911,-6.66808 0.19694,-8.20922 6.09765,-23.14378 3.47692,-8.8 7.66179,-19.07831 9.29972,-22.8407 1.63792,-3.76238 2.78334,-7.03541 2.54536,-7.27338 -0.50938,-0.50939 -8.72655,6.05899 -21.01314,16.7968 -5.37455,4.69708 -10.62376,8.35008 -13.5,9.39485 -5.79488,2.10496 -21.85367,9.02812 -25.0784,10.81164 -2.09386,1.15806 -3.61965,0.87255 -13,-2.43256 -5.84524,-2.05954 -12.15841,-4.36972 -14.02926,-5.13373 l -3.40155,-1.38912 11.40155,-6.8969 C 702.76265,239.2222 762.2087,202.72872 780,191.5942 c 10.175,-6.36792 18.63568,-11.17464 18.80151,-10.6816 0.16583,0.49305 -1.71531,7.12691 -4.18032,14.74193 -2.465,7.61501 -9.94495,31.39547 -16.62209,52.84547 -6.67715,21.45 -14.38868,46.2 -17.13675,55 -2.74806,8.8 -5.69662,18.25 -6.55234,21 -0.85572,2.75 -1.83804,5.30516 -2.18293,5.67813 -0.34489,0.37297 -3.86543,-4.1398 -7.82342,-10.02837 z m -44.042,-6.37816 c -2.30843,-2.34938 -7.57329,-6.5216 -11.69969,-9.2716 -4.12641,-2.75 -7.50968,-5.225 -7.51838,-5.5 -0.0245,-0.77234 13.98215,-16.45619 15.03442,-16.83475 1.13371,-0.40786 11.59611,7.04715 18.40042,13.11127 l 4.97842,4.43687 -5.97842,7.27953 c -3.28814,4.00375 -6.6627,8.12796 -7.49902,9.16491 -1.4573,1.80688 -1.69532,1.70755 -5.71775,-2.38623 z M 629,275.06287 c -1.375,-0.42087 -4.82579,-1.94616 -7.66842,-3.38955 C 603.73201,262.73691 575.96836,254.32062 551.5,250.50453 546,249.64675 540.32087,248.47691 538.87972,247.90488 535.6639,246.62844 534,243.2009 534,237.85295 c 0,-3.2759 0.65186,-4.70481 3.4,-7.45295 3.98821,-3.98821 4.34609,-4.01379 20.1,-1.43628 20.35193,3.32979 41.93127,9.47811 64,18.23467 18.39471,7.29876 22.5,10.51313 22.5,17.61709 0,3.69303 -3.37304,8.02461 -7.63578,9.8057 -3.64844,1.52442 -3.79769,1.53337 -7.36422,0.44169 z"
       id="path1" />
  </g>
</svg>
